<svg version="1.1" viewBox="0.0 0.0 80.0 48.0" fill="none" stroke="none" stroke-linecap="square" stroke-miterlimit="10" xmlns:xlink="http://www.w3.org/1999/xlink" xmlns="http://www.w3.org/2000/svg"><clipPath id="p.0"><path d="m0 0l80.0 0l0 48.0l-80.0 0l0 -48.0z" clip-rule="nonzero"/></clipPath><g clip-path="url(#p.0)"><path fill="#000000" fill-opacity="0.0" d="m0 0l80.0 0l0 48.0l-80.0 0z" fill-rule="evenodd"/><path fill="#000000" fill-opacity="0.0" d="m3.6272967 1.9422572l75.71654 0l0 36.755905l-75.71654 0z" fill-rule="evenodd"/><path fill="#000000" d="m63.962685 29.73708l-11.65625 0l-6.421875 16.703125l-13.6875 0l17.484375 -45.0l28.078125 0l-6.25 11.515625l-12.671875 0l-2.3125 6.046875l11.671875 0l-4.234375 10.734375zm-33.875 16.484375l-29.84375 -3.234375l31.109375 0l-1.265625 3.234375zm5.390625 -13.890625l-29.828125 -3.25l31.09375 0l-1.265625 3.25zm2.703125 -6.921875l-29.84375 -3.234375l31.109375 0l-1.265625 3.234375zm2.6875 -6.90625l-29.84375 -3.234375l31.109375 0l-1.265625 3.234375zm2.6875 -6.90625l-29.828125 -3.25l31.03125 0l-1.203125 3.25zm-10.765625 27.640625l-29.84375 -3.234375l31.109375 0l-1.265625 3.234375zm13.390625 -34.5625l-29.765625 -3.2343752l31.03125 0l-1.265625 3.2343752z" fill-rule="nonzero"/><path fill="#000000" fill-opacity="0.0" d="m22.922834 -50.225723l7.307087 0l0 18.960632l-7.307087 0z" fill-rule="evenodd"/></g></svg>